# AST/ASF file generated using VICON BodyLanguage
# -----------------------------------------------
:version 1.10
:name VICON
:units
  mass 1.0
  length 0.45
  angle deg
:documentation
   .ast/.asf automatically generated from VICON data using
   VICON BodyBuilder and BodyLanguage model FoxedUp or BRILLIANT.MOD
:root
   order TX TY TZ RX RY RZ
   axis XYZ
   position 0 0 0  
   orientation 0 -0 0 
:bonedata
  begin
     id 1 
     name lhipjoint
     direction 0.432694 -0.693742 0.575759 
     length 2.19277 
     axis 0 -0 0  XYZ
  end
  begin
     id 2 
     name lfemur
     direction 0.34202 -0.939693 0  
     length 6.69022  
     axis 0 -0 20  XYZ
    dof rx ry rz
    limits (-160.0 20.0)
           (-70.0 70.0)
           (-60.0 70.0)
  end
  begin
     id 3 
     name ltibia
     direction 0.34202 -0.939693 0   
     length 6.50337   
     axis 0 -0 20   XYZ
    dof rx
    limits (-10.0 170.0)
  end
  begin
     id 4 
     name lfoot
     direction 0.158999 -0.435969 0.885805   
     length 2.70564   
     axis -90 -1.13533e-015 20   XYZ
    dof rx rz
    limits (-45.0 90.0)
           (-70.0 20.0)
  end
  begin
     id 5 
     name ltoes
     direction -0.00592919 0.00964381 0.999936   
     length 1.29929   
     axis -90 -1.13533e-015 20   XYZ
    dof rx
    limits (-90.0 20.0)
  end
  begin
     id 6 
     name rhipjoint
     direction -0.414359 -0.700339 0.581234   
     length 2.17212  
     axis 0 -0 0  XYZ 
  end
  begin
     id 7 
     name rfemur
     direction -0.34202 -0.939693 0   
     length 7.17659   
     axis 0 -0 -20   XYZ
    dof rx ry rz
    limits (-160.0 20.0)
           (-70.0 70.0)
           (-70.0 60.0)
  end
  begin
     id 8 
     name rtibia
     direction -0.34202 -0.939693 0   
     length 6.36669   
     axis 0 -0 -20   XYZ
    dof rx
    limits (-10.0 170.0)
 end
 begin
     id 9 
     name rfoot
     direction -0.137064 -0.37658 0.916188   
     length 2.22351  
     axis -90 1.13533e-015 -20   XYZ
    dof rx rz
    limits (-45.0 90.0)
           (-20.0 70.0)
  end
  begin
     id 10 
     name rtoes
     direction -0.000784077 -0.00289101 0.999996   
     length 1.09522   
     axis -90 1.13533e-015 -20   XYZ
    dof rx
    limits (-90.0 20.0)
  end
  begin
     id 11 
     name lowerback
     direction -0.0176242 0.984912 -0.172157   
     length 1.65301   
     axis 0 -0 0   XYZ
    dof rx ry rz
    limits (-20.0 45.0)
           (-30.0 30.0)
           (-30.0 30.0)
  end
  begin
     id 12 
     name upperback
     direction -0.00218128 0.998776 -0.0494072   
     length 1.67776   
     axis 0 -0 0   XYZ
    dof rx ry rz
    limits (-20.0 45.0)
           (-30.0 30.0)
           (-30.0 30.0)
  end
  begin
     id 13 
     name thorax
     direction 0.00544186 0.999658 0.0255711   
     length 1.72293   
     axis 0 -0 0   XYZ
    dof rx ry rz
    limits (-20.0 45.0)
           (-30.0 30.0)
           (-30.0 30.0)
  end
  begin
     id 14 
     name lowerneck
     direction -0.105325 0.983841 0.144785   
     length 2.14226   
     axis 0 -0 0   XYZ
    dof rx ry rz
    limits (-20.0 45.0)
           (-30.0 30.0)
           (-30.0 30.0)
  end
  begin
     id 15 
     name upperneck
     direction 0.0547957 0.988053 -0.144041   
     length 2.17508   
     axis 0 -0 0   XYZ
    dof rx ry rz
    limits (-20.0 45.0)
           (-30.0 30.0)
           (-30.0 30.0)
  end
  begin
     id 16
     name head
     direction 0.0247488 0.997534 -0.0656813  
     length 2.20048  
     axis 0 -0 0   XYZ
    dof rx ry rz
    limits (-20.0 45.0)
           (-30.0 30.0)
           (-30.0 30.0)
  end
  begin
     id 17 
     name lclavicle
     direction 0.820559 0.567247 -0.0701026  
     length 4.09615  
     axis 0 -0 0   XYZ
    dof ry rz
    limits (-20.0 10.0)
           (0.0 20.0)
  end
  begin
     id 18 
     name lhumerus
     direction 0.999977 -0.0067566 -9.96392e-005   
     length 4.59333   
     axis -180 -30 -90   XYZ
    dof rx ry rz
    limits (-60.0 90.0)
           (-90.0 90.0)
           (-90.0 90.0)
  end
  begin
     id 19
     name lradius
     direction 1 -4.48982e-011 -2.53425e-027   
     length 2.81151   
     axis -180 -30 -90   XYZ
    dof rx
    limits (-10.0 170.0)
  end
  begin
     id 20
     name lwrist
     direction 1 -4.48939e-011 -7.39254e-028   
     length 1.40576   
     axis 2.56395e-016 90 90   XYZ
    dof ry
    limits (-180.0 0.0)
 end
  begin
     id 21 
     name lhand
     direction 1 -4.48939e-011 -1.47851e-027   
     length 0.895651   
     axis 9.43423e-016 90 90   XYZ
    dof rx rz
    limits (-90.0 90.0)
           (-45.0 45.0)
  end
  begin
     id 22 
     name lfingers
     direction 1 -4.48978e-011 -2.95702e-027   
     length 0.722097   
     axis 1.88685e-015 90 90   XYZ
    dof rx
    limits (0.0 90.0)
  end
  begin
     id 23
     name lthumb
     direction 0.707107 -6.34931e-011 0.707107   
     length 1.03679   
     axis -90 45 -9.86935e-015   XYZ
    dof rx rz
    limits (-45.0 45.0)
           (-45.0 45.0)
  end
  begin
     id 24 
     name rclavicle
     direction -0.831414 0.553102 -0.0531864   
     length 4.24872  
     axis 0 -0 0   XYZ 
    dof ry rz
    limits (-10.0 20.0)
           (-20.0 0.0)
  end
  begin
     id 25 
     name rhumerus
     direction -0.999916 -0.000939607 0.0129331  
     length 4.74834   
     axis -180 30 90   XYZ
    dof rx ry rz
    limits (-90.0 60.0)
           (-90.0 90.0)
           (-90.0 90.0)
  end
  begin
     id 26 
     name rradius
     direction -1 -4.48956e-011 -1.31752e-027   
     length 2.79907   
     axis -180 30 90   XYZ
    dof rx
    limits (-10.0 170.0)
  end
  begin
     id 27 
     name rwrist
     direction -1 -4.4897e-011 -7.39254e-028   
     length 1.39954   
     axis 2.56395e-016 -90 -90   XYZ
    dof ry
    limits (-180.0 0.0)
  end
  begin
     id 28
     name rhand
     direction -0.999997 -0.00250697 0.000800838   
     length 0.953304   
     axis 9.43423e-016 -90 -90   XYZ
    dof rx rz
    limits (-90.0 90.0)
           (-45.0 45.0)
  end
  begin
     id 29
     name rfingers
     direction -1 -4.48954e-011 -2.95702e-027   
     length 0.763342   
     axis 1.88685e-015 -90 -90   XYZ
    dof rx
    limits (0.0 90.0)
  end
  begin
     id 30
     name rthumb
     direction -0.709701 -0.00217037 0.7045   
     length 1.10115   
     axis -90 -45 9.86935e-015   XYZ
    dof rx rz
    limits (-45.0 45.0)
           (-45.0 45.0)
  end
:hierarchy
  begin
    root lhipjoint rhipjoint lowerback
    lhipjoint lfemur
    lfemur ltibia
    ltibia lfoot
    lfoot ltoes
    rhipjoint rfemur
    rfemur rtibia
    rtibia rfoot
    rfoot rtoes
    lowerback upperback
    upperback thorax
    thorax lowerneck lclavicle rclavicle
    lowerneck upperneck
    upperneck head
    lclavicle lhumerus
    lhumerus lradius
    lradius lwrist
    lwrist lhand lthumb
    lhand lfingers
    rclavicle rhumerus
    rhumerus rradius
    rradius rwrist
    rwrist rhand rthumb
    rhand rfingers
  end

#!OML:ASF G:\ViconDB\ViconDB\414\test\team2\shane.ASF
:FULLY-SPECIFIED
:DEGREES
116
root -6.96462 16.8481 -3.17049 -11.8791 22.8419 -9.27786
lowerback 8.12408 -0.301333 3.85792
upperback 4.60902 -0.0636673 3.6245
thorax 0.218388 0.016703 1.58074
lowerneck -16.4257 -2.69424 -5.92764
upperneck 22.812 -3.95818 7.28618
head 10.263 -1.46432 3.0482
rclavicle -1.00635e-015 -4.47266e-015
rhumerus -28.6168 -13.4651 -82.4328
rradius 19.8276
rwrist 53.6884
rhand -30.173 -14.5448
rfingers 7.12502
rthumb -3.48454 -44.496
lclavicle -1.00635e-015 -4.47266e-015
lhumerus -27.6412 -12.2521 93.8795
lradius 22.6193
lwrist -20.5424
lhand -38.9727 6.61596
lfingers 7.12502
lthumb -11.9773 36.2533
rfemur 3.68511 -22.6269 20.105
rtibia 24.4616
rfoot -20.6463 8.46938
rtoes -2.99558
lfemur -1.82212 2.77764 -1.35674
ltibia 62.1779
lfoot -17.8246 -15.2118
ltoes -18.339
117
root -6.92912 16.847 -3.03131 -11.8646 22.6852 -8.99516
lowerback 8.41985 -0.0931279 3.94051
upperback 4.55051 0.238736 3.44513
thorax -0.00411995 0.168391 1.3248
lowerneck -16.2814 -2.59437 -5.63463
upperneck 23.0136 -3.82836 6.96082
head 10.285 -1.41684 2.90391
rclavicle -2.27608e-014 -1.11319e-014
rhumerus -27.4827 -13.2815 -83.3728
rradius 20.1543
rwrist 52.7308
rhand -29.9873 -14.4127
rfingers 7.12502
rthumb -3.30522 -44.3668
lclavicle -2.27608e-014 -1.11319e-014
lhumerus -28.6331 -12.034 93.5253
lradius 21.9492
lwrist -21.3976
lhand -38.9174 6.8302
lfingers 7.12502
lthumb -11.924 36.4706
rfemur 4.58516 -22.2079 19.7751
rtibia 24.0242
rfoot -20.8051 8.13086
rtoes -3.24674
lfemur -3.01184 3.32383 -1.72581
ltibia 62.1043
lfoot -18.8543 -14.6649
ltoes -18.7016
118
root -6.89546 16.846 -2.88989 -11.7935 22.5381 -8.67006
lowerback 8.68465 0.120912 3.87632
upperback 4.47915 0.536478 3.3103
thorax -0.222054 0.314331 1.19488
lowerneck -15.9694 -2.86587 -6.00099
upperneck 22.8316 -4.16442 7.15022
head 10.1973 -1.58853 2.98529
rclavicle 1.6965e-014 5.2181e-015
rhumerus -26.3923 -12.2357 -84.4642
rradius 20.4911
rwrist 51.5837
rhand -30.1385 -14.6899
rfingers 7.12502
rthumb -3.45119 -44.6417
lclavicle 1.6965e-014 5.2181e-015
lhumerus -29.4359 -10.8398 92.9257
lradius 21.2556
lwrist -22.4907
lhand -38.5031 6.96755
lfingers 7.12502
lthumb -11.5245 36.6307
rfemur 5.41973 -22.1448 19.3045
rtibia 23.6136
rfoot -20.9328 8.32148
rtoes -3.09656
lfemur -4.22404 3.72705 -2.15586
ltibia 61.7479
lfoot -19.4522 -14.7039
ltoes -17.9367
119
root -6.85843 16.8443 -2.74869 -11.7361 22.453 -8.34612
lowerback 8.81892 0.319066 3.82116
upperback 4.47569 0.800895 3.12649
thorax -0.296161 0.446364 1.01143
lowerneck -15.9762 -2.53268 -5.48876
upperneck 23.1555 -3.7283 6.69603
head 10.2617 -1.39148 2.80166
rclavicle 2.9386e-014 -3.54582e-014
rhumerus -25.2368 -11.7467 -85.4981
rradius 20.8826
rwrist 50.3211
rhand -30.2033 -14.6315
rfingers 7.12502
rthumb -3.51376 -44.5823
lclavicle 2.9386e-014 -3.54582e-014
lhumerus -30.2055 -10.4522 92.5539
lradius 20.5307
lwrist -22.3748
lhand -38.6039 6.80396
lfingers 7.12502
lthumb -11.6217 36.4617
rfemur 6.18635 -21.7057 18.9528
rtibia 23.3236
rfoot -21.1991 7.9499
rtoes -3.04529
lfemur -5.33762 3.84107 -2.77919
ltibia 61.1059
lfoot -20.2453 -14.3524
ltoes -17.7817
120
root -6.82491 16.8401 -2.60129 -11.7952 22.6454 -8.20713
lowerback 9.10198 0.470407 3.94836
upperback 4.4201 1.0286 2.91367
thorax -0.50071 0.560947 0.696273
lowerneck -15.9455 -2.86626 -5.6128
upperneck 23.1667 -4.21869 6.89715
head 10.3032 -1.60426 2.8276
rclavicle 3.45513e-014 3.33089e-014
rhumerus -24.2833 -11.4057 -86.4439
rradius 21.226
rwrist 50.3109
rhand -30.4683 -15.0005
rfingers 7.12502
rthumb -3.76971 -44.9469
lclavicle 3.45513e-014 3.33089e-014
lhumerus -31.253 -11.2098 92.429
lradius 20.2798
lwrist -21.1734
lhand -38.5306 7.31241
lfingers 7.12502
lthumb -11.551 36.9741
rfemur 7.03666 -20.9803 18.9163
rtibia 23.0455
rfoot -21.4388 6.87725
rtoes -3.50777
lfemur -6.4522 4.03288 -3.06169
ltibia 60.1973
lfoot -21.0004 -14.7117
ltoes -17.679
121
root -6.78123 16.839 -2.46429 -11.5756 22.4275 -7.81821
lowerback 9.2152 0.744284 3.93524
upperback 4.36338 1.39534 2.68926
thorax -0.610633 0.74343 0.435162
lowerneck -15.9606 -2.91346 -5.70353
upperneck 23.3729 -4.303 7.03173
head 10.3925 -1.6321 2.88383
rclavicle -1.13804e-014 4.07509e-014
rhumerus -23.217 -9.79882 -87.6177
rradius 21.7985
rwrist 48.3875
rhand -30.5342 -15.2041
rfingers 7.12502
rthumb -3.8333 -45.1493
lclavicle -1.13804e-014 4.07509e-014
lhumerus -31.9335 -10.2407 91.6979
lradius 19.5391
lwrist -22.4194
lhand -38.3365 7.28214
lfingers 7.12502
lthumb -11.3638 36.9542
rfemur 7.60244 -20.5729 18.5369
rtibia 22.7641
rfoot -21.5957 6.57528
rtoes -4.34541
lfemur -7.57956 4.34174 -3.76243
ltibia 59.04
lfoot -21.7187 -14.796
ltoes -17.7742
122
root -6.73932 16.8386 -2.32409 -11.4479 22.4034 -7.44722
lowerback 9.40422 0.99794 3.82876
upperback 4.33651 1.73175 2.51338
thorax -0.733418 0.909449 0.276835
lowerneck -16.009 -2.98985 -5.69398
upperneck 23.5608 -4.38987 6.92243
head 10.4739 -1.68027 2.83403
rclavicle -7.10593e-014 5.11871e-015
rhumerus -22.3173 -9.55655 -88.2405
rradius 22.2475
rwrist 48.9899
rhand -30.7544 -15.465
rfingers 7.12502
rthumb -4.04596 -45.4063
lclavicle -7.10593e-014 5.11871e-015
lhumerus -32.7486 -10.0318 91.3243
lradius 19.0453
lwrist -22.7604
lhand -37.9613 7.30749
lfingers 7.12502
lthumb -11.002 36.9992
rfemur 8.34328 -20.2281 18.1228
rtibia 22.4306
rfoot -21.7538 6.29639
rtoes -4.5424
lfemur -8.56958 4.43533 -4.45435
ltibia 57.6299
lfoot -22.3734 -14.8865
ltoes -18.0086
123
root -6.69517 16.8377 -2.18351 -11.3318 22.3622 -7.28244
lowerback 9.45231 1.19493 3.92859
upperback 4.34259 2.00041 2.33374
thorax -0.737192 1.04623 0.00875335
lowerneck -16.0807 -3.0172 -5.74046
upperneck 23.5879 -4.45663 7.09106
head 10.5082 -1.69284 2.89386
rclavicle -3.82226e-014 1.47101e-014
rhumerus -21.2813 -9.09819 -88.9143
rradius 22.6509
rwrist 49.4947
rhand -30.9958 -15.0886
rfingers 7.12502
rthumb -4.27912 -45.0253
lclavicle -3.82226e-014 1.47101e-014
lhumerus -33.5083 -10.7607 91.2658
lradius 18.8138
lwrist -20.7941
lhand -37.489 7.39401
lfingers 7.12502
lthumb -10.5463 37.1094
rfemur 8.99834 -19.6874 18.0318
rtibia 22.0469
rfoot -21.7536 5.81484
rtoes -4.76789
lfemur -9.55065 4.60698 -4.90837
ltibia 55.9711
lfoot -22.9909 -14.9489
ltoes -18.0718
124
root -6.6469 16.8345 -2.0391 -11.224 22.3604 -7.13004
lowerback 9.41488 1.35536 3.87766
upperback 4.34236 2.20494 2.24605
thorax -0.709849 1.14882 -0.0718094
lowerneck -16.0557 -2.97456 -5.52724
upperneck 23.6046 -4.38191 6.81341
head 10.4918 -1.67184 2.76813
rclavicle 2.10898e-014 1.92821e-014
rhumerus -20.3474 -7.0497 -89.9117
rradius 23.3554
rwrist 47.4127
rhand -31.2006 -15.3088
rfingers 7.12502
rthumb -4.47686 -45.2415
lclavicle 2.10898e-014 1.92821e-014
lhumerus -34.4566 -10.6495 91.0208
lradius 18.4498
lwrist -20.7467
lhand -37.7977 7.22595
lfingers 7.12502
lthumb -10.8442 36.926
rfemur 9.78514 -18.9985 18.004
rtibia 21.4481
rfoot -21.832 4.94475
rtoes -5.57969
lfemur -10.4461 4.69162 -5.35734
ltibia 54.0924
lfoot -23.4818 -14.8817
ltoes -17.7911
125
root -6.59842 16.8363 -1.89376 -11.1197 22.5517 -6.93947
lowerback 9.45907 1.50101 3.80148
upperback 4.31754 2.39264 2.11971
thorax -0.752377 1.24171 -0.17944
lowerneck -16.0666 -3.03434 -5.59689
upperneck 23.6654 -4.46532 6.87961
head 10.5257 -1.70695 2.79336
rclavicle 3.9173e-014 3.47873e-015
rhumerus -19.5057 -5.37217 -90.6981
rradius 24.0903
rwrist 45.947
rhand -31.2695 -15.5593
rfingers 7.12502
rthumb -4.54333 -45.4905
lclavicle 3.9173e-014 3.47873e-015
lhumerus -35.1064 -9.64062 90.1291
lradius 17.9721
lwrist -21.9902
lhand -37.4436 6.99424
lfingers 7.12502
lthumb -10.5026 36.7119
rfemur 10.6732 -18.7897 17.7738
rtibia 20.7531
rfoot -21.799 4.51642
rtoes -5.96208
lfemur -11.1871 4.84958 -5.88232
ltibia 51.9713
lfoot -24.1978 -14.6028
ltoes -18.2262
126
root -6.54979 16.8357 -1.74023 -11.1101 22.9005 -6.88265
lowerback 9.39594 1.55387 3.84012
upperback 4.30596 2.46017 1.96282
thorax -0.719005 1.27762 -0.36732
lowerneck -15.9662 -2.99435 -5.26292
upperneck 23.6605 -4.43696 6.63185
head 10.4881 -1.69407 2.65156
rclavicle -2.5519e-014 -5.36719e-015
rhumerus -18.8016 -4.14722 -91.4819
rradius 24.9088
rwrist 44.7622
rhand -31.2118 -15.3575
rfingers 7.12502
rthumb -4.4877 -45.29
lclavicle -2.5519e-014 -5.36719e-015
lhumerus -35.9285 -9.46648 89.6193
lradius 17.4479
lwrist -22.2578
lhand -37.3706 7.20022
lfingers 7.12502
lthumb -10.4321 36.9214
rfemur 11.7262 -18.5942 17.696
rtibia 19.9183
rfoot -21.7532 3.83302
rtoes -6.25315
lfemur -11.889 4.80045 -6.28273
ltibia 49.663
lfoot -24.4804 -14.5581
ltoes -17.855
127
root -6.48979 16.8434 -1.597 -10.8717 22.6432 -6.67556
lowerback 9.35783 1.79946 3.90602
upperback 4.24825 2.7878 1.82261
thorax -0.736403 1.44178 -0.579182
lowerneck -15.9852 -2.96132 -5.27031
upperneck 23.6466 -4.38966 6.6495
head 10.4839 -1.67023 2.66561
rclavicle 1.89964e-014 2.00773e-014
rhumerus -18.1038 -2.48763 -92.1237
rradius 25.7067
rwrist 43.7567
rhand -31.4326 -15.5613
rfingers 7.12502
rthumb -4.70085 -45.4891
lclavicle 1.89964e-014 2.00773e-014
lhumerus -36.7972 -9.37013 89.3225
lradius 17.3054
lwrist -21.858
lhand -37.266 7.22254
lfingers 7.12502
lthumb -10.3313 36.9488
rfemur 12.5776 -18.6248 17.3201
rtibia 18.9279
rfoot -21.4944 4.13276
rtoes -6.38265
lfemur -12.5281 5.4 -6.78403
ltibia 47.1592
lfoot -24.681 -14.3809
ltoes -17.8005
128
root -6.43898 16.8418 -1.44501 -10.8178 22.8872 -6.71195
lowerback 9.37663 1.90299 4.00758
upperback 4.15907 2.93559 1.72174
thorax -0.822797 1.51479 -0.756497
lowerneck -15.9315 -2.97025 -5.09924
upperneck 23.6527 -4.40528 6.48148
head 10.4687 -1.68191 2.57423
rclavicle 1.10574e-015 7.95139e-016
rhumerus -17.5131 -0.678205 -92.6925
rradius 26.5431
rwrist 42.2139
rhand -31.6008 -15.5692
rfingers 7.12502
rthumb -4.86324 -45.4934
lclavicle 1.10574e-015 7.95139e-016
lhumerus -37.6449 -9.62692 89.0172
lradius 17.0062
lwrist -21.7062
lhand -36.9015 7.36335
lfingers 7.12502
lthumb -9.97957 37.1068
rfemur 13.7264 -18.629 17.2903
rtibia 17.6594
rfoot -21.1579 3.6612
rtoes -7.25446
lfemur -13.1379 5.60428 -7.04776
ltibia 44.5314
lfoot -24.6809 -14.5464
ltoes -17.6262
129
root -6.37523 16.8439 -1.29948 -10.6225 22.8025 -6.63615
lowerback 9.37735 2.10643 4.17812
upperback 3.99748 3.22085 1.557
thorax -0.959264 1.65489 -1.05222
lowerneck -15.7717 -2.9428 -4.98692
upperneck 23.6624 -4.41101 6.52032
head 10.4399 -1.67142 2.56971
rclavicle 6.83322e-015 -1.21259e-014
rhumerus -17.05 0.246867 -93.2079
rradius 27.3112
rwrist 41.5642
rhand -31.6343 -15.3137
rfingers 7.12502
rthumb -4.8956 -45.2371
lclavicle 6.83322e-015 -1.21259e-014
lhumerus -38.3701 -8.67417 88.0776
lradius 16.382
lwrist -22.5809
lhand -36.8675 7.1728
lfingers 7.12502
lthumb -9.94684 36.9178
rfemur 14.6993 -18.0894 17.3004
rtibia 16.3534
rfoot -20.6344 3.07126
rtoes -7.76721
lfemur -13.7153 6.14487 -7.48775
ltibia 41.7944
lfoot -24.5685 -14.2648
ltoes -17.5071
130
root -6.31419 16.8585 -1.14685 -10.558 22.9813 -6.67416
lowerback 9.32778 2.18696 4.20829
upperback 3.87795 3.33016 1.51756
thorax -1.04666 1.70632 -1.12108
lowerneck -15.6229 -2.87458 -4.8101
upperneck 23.6919 -4.32586 6.36505
head 10.4081 -1.63604 2.49722
rclavicle -3.80424e-014 -1.11319e-014
rhumerus -16.6674 2.22276 -93.6859
rradius 28.2619
rwrist 39.7886
rhand -31.8577 -15.4047
rfingers 7.12502
rthumb -5.1113 -45.3231
lclavicle -3.80424e-014 -1.11319e-014
lhumerus -39.4019 -8.18731 87.4308
lradius 16.3339
lwrist -23.3918
lhand -35.9321 7.24277
lfingers 7.12502
lthumb -9.04431 37.0289
rfemur 15.9731 -18.1459 17.1969
rtibia 14.7535
rfoot -20.0171 2.90178
rtoes -8.24361
lfemur -14.2899 6.63639 -7.83686
ltibia 39.0574
lfoot -23.8772 -14.5345
ltoes -17.3053
